<svg width="352" height="500" viewBox="0 0 352 500" fill="none" xmlns="http://www.w3.org/2000/svg">
<path d="M26.2558 104.302H37.8837V115.93H26.2558V104.302ZM26.2558 115.93H37.8837V127.558H26.2558V115.93ZM37.8837 115.93H49.5116V127.558H37.8837V115.93ZM37.8837 127.558H49.5116V139.186H37.8837V127.558ZM49.5116 127.558H61.1395V139.186H49.5116V127.558ZM49.5116 139.186H61.1395V150.814H49.5116V139.186ZM61.1395 139.186H72.7674V150.814H61.1395V139.186ZM61.1395 127.558H72.7674V139.186H61.1395V127.558ZM72.7674 127.558H84.3954V139.186H72.7674V127.558ZM72.7674 139.186H84.3954V150.814H72.7674V139.186ZM84.3954 115.93H96.0233V127.558H84.3954V115.93ZM96.0233 127.558H107.651V139.186H96.0233V127.558ZM107.651 127.558H119.279V139.186H107.651V127.558ZM84.3954 127.558H96.0233V139.186H84.3954V127.558ZM84.3954 139.186H96.0233V150.814H84.3954V139.186ZM96.0233 139.186H107.651V150.814H96.0233V139.186ZM107.651 139.186H119.279V150.814H107.651V139.186ZM119.279 139.186H130.907V150.814H119.279V139.186ZM130.907 139.186H142.535V150.814H130.907V139.186ZM142.535 139.186H154.163V150.814H142.535V139.186ZM154.163 139.186H165.791V150.814H154.163V139.186ZM165.791 139.186H177.419V150.814H165.791V139.186ZM177.419 139.186H189.047V150.814H177.419V139.186ZM189.047 139.186H200.674V150.814H189.047V139.186ZM200.674 139.186H212.302V150.814H200.674V139.186ZM212.302 139.186H223.93V150.814H212.302V139.186ZM223.93 139.186H235.558V150.814H223.93V139.186ZM223.93 127.558H235.558V139.186H223.93V127.558ZM212.302 127.558H223.93V139.186H212.302V127.558ZM200.674 127.558H212.302V139.186H200.674V127.558ZM189.047 127.558H200.674V139.186H189.047V127.558ZM165.791 127.558H177.419V139.186H165.791V127.558ZM154.163 127.558H165.791V139.186H154.163V127.558ZM142.535 127.558H154.163V139.186H142.535V127.558ZM130.907 127.558H142.535V139.186H130.907V127.558ZM119.279 127.558H130.907V139.186H119.279V127.558ZM177.419 127.558H189.047V139.186H177.419V127.558ZM165.791 115.93H177.419V127.558H165.791V115.93ZM165.791 104.302H177.419V115.93H165.791V104.302ZM154.163 104.302H165.791V115.93H154.163V104.302ZM154.163 115.93H165.791V127.558H154.163V115.93ZM177.419 104.302H189.047V115.93H177.419V104.302ZM189.047 104.302H200.674V115.93H189.047V104.302ZM189.047 115.93H200.674V127.558H189.047V115.93ZM177.419 115.93H189.047V127.558H177.419V115.93ZM235.558 127.558H247.186V139.186H235.558V127.558ZM235.558 139.186H247.186V150.814H235.558V139.186ZM247.186 139.186H258.814V150.814H247.186V139.186ZM247.186 127.558H258.814V139.186H247.186V127.558ZM247.186 115.93H258.814V127.558H247.186V115.93ZM247.186 104.302H258.814V115.93H247.186V104.302ZM258.814 104.302H270.442V115.93H258.814V104.302ZM258.814 115.93H270.442V127.558H258.814V115.93ZM258.814 127.558H270.442V139.186H258.814V127.558ZM258.814 139.186H270.442V150.814H258.814V139.186ZM270.442 139.186H282.07V150.814H270.442V139.186ZM282.07 139.186H293.698V150.814H282.07V139.186ZM282.07 127.558H293.698V139.186H282.07V127.558ZM282.07 115.93H293.698V127.558H282.07V115.93ZM282.07 104.302H293.698V115.93H282.07V104.302ZM270.442 104.302H282.07V115.93H270.442V104.302ZM270.442 115.93H282.07V127.558H270.442V115.93ZM270.442 127.558H282.07V139.186H270.442V127.558ZM293.698 127.558H305.326V139.186H293.698V127.558ZM305.326 127.558H316.953V139.186H305.326V127.558ZM305.326 139.186H316.953V150.814H305.326V139.186ZM293.698 139.186H305.326V150.814H293.698V139.186ZM316.953 127.558H328.581V139.186H316.953V127.558ZM328.581 127.558H340.209V139.186H328.581V127.558ZM328.581 139.186H340.209V150.814H328.581V139.186ZM316.953 139.186H328.581V150.814H316.953V139.186ZM84.3954 150.814H96.0233V162.442H84.3954V150.814ZM84.3954 162.442H96.0233V174.07H84.3954V162.442ZM84.3954 174.07H96.0233V185.698H84.3954V174.07ZM84.3954 185.698H96.0233V197.326H84.3954V185.698ZM84.3954 197.326H96.0233V208.953H84.3954V197.326ZM96.0233 197.326H107.651V208.953H96.0233V197.326ZM96.0233 185.698H107.651V197.326H96.0233V185.698ZM96.0233 174.07H107.651V185.698H96.0233V174.07ZM96.0233 162.442H107.651V174.07H96.0233V162.442ZM96.0233 150.814H107.651V162.442H96.0233V150.814ZM107.651 150.814H119.279V162.442H107.651V150.814ZM119.279 150.814H130.907V162.442H119.279V150.814ZM119.279 162.442H130.907V174.07H119.279V162.442ZM119.279 174.07H130.907V185.698H119.279V174.07ZM119.279 185.698H130.907V197.326H119.279V185.698ZM119.279 197.326H130.907V208.953H119.279V197.326ZM119.279 208.953H130.907V220.581H119.279V208.953ZM107.651 208.953H119.279V220.581H107.651V208.953ZM107.651 197.326H119.279V208.953H107.651V197.326ZM107.651 185.698H119.279V197.326H107.651V185.698ZM107.651 174.07H119.279V185.698H107.651V174.07ZM107.651 162.442H119.279V174.07H107.651V162.442ZM84.3954 208.953H96.0233V220.581H84.3954V208.953ZM84.3954 220.581H96.0233V232.209H84.3954V220.581ZM84.3954 232.209H96.0233V243.837H84.3954V232.209ZM96.0233 232.209H107.651V243.837H96.0233V232.209ZM107.651 232.209H119.279V243.837H107.651V232.209ZM107.651 220.581H119.279V232.209H107.651V220.581ZM119.279 220.581H130.907V232.209H119.279V220.581ZM96.0233 208.953H107.651V220.581H96.0233V208.953ZM96.0233 220.581H107.651V232.209H96.0233V220.581ZM119.279 232.209H130.907V243.837H119.279V232.209ZM72.7674 197.326H84.3954V208.953H72.7674V197.326ZM61.1395 197.326H72.7674V208.953H61.1395V197.326ZM61.1395 208.953H72.7674V220.581H61.1395V208.953ZM72.7674 208.953H84.3954V220.581H72.7674V208.953ZM49.5116 197.326H61.1395V208.953H49.5116V197.326ZM37.8837 197.326H49.5116V208.953H37.8837V197.326ZM37.8837 208.953H49.5116V220.581H37.8837V208.953ZM49.5116 208.953H61.1395V220.581H49.5116V208.953ZM72.7674 243.837H84.3954V255.465H72.7674V243.837ZM61.1395 243.837H72.7674V255.465H61.1395V243.837ZM49.5116 243.837H61.1395V255.465H49.5116V243.837ZM37.8837 243.837H49.5116V255.465H37.8837V243.837ZM37.8837 255.465H49.5116V267.093H37.8837V255.465ZM49.5116 255.465H61.1395V267.093H49.5116V255.465ZM61.1395 255.465H72.7674V267.093H61.1395V255.465ZM72.7674 255.465H84.3954V267.093H72.7674V255.465ZM84.3954 255.465H96.0233V267.093H84.3954V255.465ZM84.3954 243.837H96.0233V255.465H84.3954V243.837ZM96.0233 243.837H107.651V255.465H96.0233V243.837ZM107.651 243.837H119.279V255.465H107.651V243.837ZM119.279 243.837H130.907V255.465H119.279V243.837ZM119.279 255.465H130.907V267.093H119.279V255.465ZM107.651 255.465H119.279V267.093H107.651V255.465ZM96.0233 255.465H107.651V267.093H96.0233V255.465ZM84.3954 267.093H96.0233V278.721H84.3954V267.093ZM96.0233 267.093H107.651V278.721H96.0233V267.093ZM107.651 267.093H119.279V278.721H107.651V267.093ZM119.279 267.093H130.907V278.721H119.279V267.093ZM119.279 278.721H130.907V290.349H119.279V278.721ZM107.651 278.721H119.279V290.349H107.651V278.721ZM96.0233 278.721H107.651V290.349H96.0233V278.721ZM84.3954 278.721H96.0233V290.349H84.3954V278.721ZM84.3954 290.349H96.0233V301.977H84.3954V290.349ZM96.0233 290.349H107.651V301.977H96.0233V290.349ZM96.0233 301.977H107.651V313.605H96.0233V301.977ZM84.3954 301.977H96.0233V313.605H84.3954V301.977ZM189.047 150.814H200.674V162.442H189.047V150.814ZM177.419 150.814H189.047V162.442H177.419V150.814ZM177.419 162.442H189.047V174.07H177.419V162.442ZM189.047 162.442H200.674V174.07H189.047V162.442ZM200.674 150.814H212.302V162.442H200.674V150.814ZM212.302 150.814H223.93V162.442H212.302V150.814ZM212.302 162.442H223.93V174.07H212.302V162.442ZM200.674 162.442H212.302V174.07H200.674V162.442ZM177.419 174.07H189.047V185.698H177.419V174.07ZM177.419 185.698H189.047V197.326H177.419V185.698ZM177.419 197.326H189.047V208.953H177.419V197.326ZM177.419 208.953H189.047V220.581H177.419V208.953ZM177.419 220.581H189.047V232.209H177.419V220.581ZM177.419 232.209H189.047V243.837H177.419V232.209ZM177.419 243.837H189.047V255.465H177.419V243.837ZM177.419 255.465H189.047V267.093H177.419V255.465ZM177.419 267.093H189.047V278.721H177.419V267.093ZM177.419 278.721H189.047V290.349H177.419V278.721ZM177.419 290.349H189.047V301.977H177.419V290.349ZM177.419 301.977H189.047V313.605H177.419V301.977ZM177.419 313.605H189.047V325.233H177.419V313.605ZM177.419 325.233H189.047V336.86H177.419V325.233ZM177.419 336.86H189.047V348.488H177.419V336.86ZM177.419 348.488H189.047V360.116H177.419V348.488ZM177.419 360.116H189.047V371.744H177.419V360.116ZM177.419 371.744H189.047V383.372H177.419V371.744ZM177.419 383.372H189.047V395H177.419V383.372ZM189.047 383.372H200.674V395H189.047V383.372ZM200.674 383.372H212.302V395H200.674V383.372ZM212.302 383.372H223.93V395H212.302V383.372ZM212.302 371.744H223.93V383.372H212.302V371.744ZM212.302 360.116H223.93V371.744H212.302V360.116ZM212.302 348.488H223.93V360.116H212.302V348.488ZM212.302 325.233H223.93V336.86H212.302V325.233ZM212.302 313.605H223.93V325.233H212.302V313.605ZM212.302 301.977H223.93V313.605H212.302V301.977ZM212.302 290.349H223.93V301.977H212.302V290.349ZM212.302 278.721H223.93V290.349H212.302V278.721ZM212.302 267.093H223.93V278.721H212.302V267.093ZM212.302 336.86H223.93V348.488H212.302V336.86ZM200.674 290.349H212.302V301.977H200.674V290.349ZM200.674 278.721H212.302V290.349H200.674V278.721ZM212.302 255.465H223.93V267.093H212.302V255.465ZM212.302 243.837H223.93V255.465H212.302V243.837ZM212.302 232.209H223.93V243.837H212.302V232.209ZM200.674 232.209H212.302V243.837H200.674V232.209ZM200.674 220.581H212.302V232.209H200.674V220.581ZM200.674 208.953H212.302V220.581H200.674V208.953ZM212.302 197.326H223.93V208.953H212.302V197.326ZM212.302 185.698H223.93V197.326H212.302V185.698ZM212.302 174.07H223.93V185.698H212.302V174.07ZM212.302 208.953H223.93V220.581H212.302V208.953ZM212.302 220.581H223.93V232.209H212.302V220.581ZM200.674 185.698H212.302V197.326H200.674V185.698ZM200.674 197.326H212.302V208.953H200.674V197.326ZM189.047 208.953H200.674V220.581H189.047V208.953ZM189.047 232.209H200.674V243.837H189.047V232.209ZM189.047 243.837H200.674V255.465H189.047V243.837ZM200.674 243.837H212.302V255.465H200.674V243.837ZM200.674 255.465H212.302V267.093H200.674V255.465ZM200.674 174.07H212.302V185.698H200.674V174.07ZM189.047 185.698H200.674V197.326H189.047V185.698ZM189.047 197.326H200.674V208.953H189.047V197.326ZM189.047 220.581H200.674V232.209H189.047V220.581ZM189.047 174.07H200.674V185.698H189.047V174.07ZM189.047 255.465H200.674V267.093H189.047V255.465ZM189.047 267.093H200.674V278.721H189.047V267.093ZM189.047 278.721H200.674V290.349H189.047V278.721ZM189.047 290.349H200.674V301.977H189.047V290.349ZM189.047 301.977H200.674V313.605H189.047V301.977ZM189.047 313.605H200.674V325.233H189.047V313.605ZM189.047 325.233H200.674V336.86H189.047V325.233ZM189.047 336.86H200.674V348.488H189.047V336.86ZM189.047 348.488H200.674V360.116H189.047V348.488ZM200.674 313.605H212.302V325.233H200.674V313.605ZM200.674 301.977H212.302V313.605H200.674V301.977ZM200.674 267.093H212.302V278.721H200.674V267.093ZM200.674 325.233H212.302V336.86H200.674V325.233ZM200.674 336.86H212.302V348.488H200.674V336.86ZM200.674 348.488H212.302V360.116H200.674V348.488ZM200.674 360.116H212.302V371.744H200.674V360.116ZM200.674 371.744H212.302V383.372H200.674V371.744ZM189.047 371.744H200.674V383.372H189.047V371.744ZM189.047 360.116H200.674V371.744H189.047V360.116ZM165.791 360.116H177.419V371.744H165.791V360.116ZM154.163 360.116H165.791V371.744H154.163V360.116ZM154.163 348.488H165.791V360.116H154.163V348.488ZM165.791 348.488H177.419V360.116H165.791V348.488ZM223.93 348.488H235.558V360.116H223.93V348.488ZM235.558 348.488H247.186V360.116H235.558V348.488ZM235.558 360.116H247.186V371.744H235.558V360.116ZM223.93 360.116H235.558V371.744H223.93V360.116ZM165.791 232.209H177.419V243.837H165.791V232.209ZM165.791 220.581H177.419V232.209H165.791V220.581ZM154.163 220.581H165.791V232.209H154.163V220.581ZM154.163 232.209H165.791V243.837H154.163V232.209ZM223.93 220.581H235.558V232.209H223.93V220.581ZM223.93 232.209H235.558V243.837H223.93V232.209ZM235.558 232.209H247.186V243.837H235.558V232.209ZM235.558 220.581H247.186V232.209H235.558V220.581ZM282.07 150.814H293.698V162.442H282.07V150.814ZM270.442 150.814H282.07V162.442H270.442V150.814ZM270.442 162.442H282.07V174.07H270.442V162.442ZM282.07 162.442H293.698V174.07H282.07V162.442ZM293.698 162.442H305.326V174.07H293.698V162.442ZM293.698 150.814H305.326V162.442H293.698V150.814ZM305.326 150.814H316.953V162.442H305.326V150.814ZM305.326 162.442H316.953V174.07H305.326V162.442ZM270.442 174.07H282.07V185.698H270.442V174.07ZM270.442 185.698H282.07V197.326H270.442V185.698ZM270.442 197.326H282.07V208.953H270.442V197.326ZM270.442 220.581H282.07V232.209H270.442V220.581ZM270.442 232.209H282.07V243.837H270.442V232.209ZM270.442 208.953H282.07V220.581H270.442V208.953ZM270.442 243.837H282.07V255.465H270.442V243.837ZM270.442 255.465H282.07V267.093H270.442V255.465ZM270.442 267.093H282.07V278.721H270.442V267.093ZM270.442 278.721H282.07V290.349H270.442V278.721ZM270.442 290.349H282.07V301.977H270.442V290.349ZM270.442 301.977H282.07V313.605H270.442V301.977ZM270.442 313.605H282.07V325.233H270.442V313.605ZM270.442 325.233H282.07V336.86H270.442V325.233ZM270.442 336.86H282.07V348.488H270.442V336.86ZM270.442 348.488H282.07V360.116H270.442V348.488ZM270.442 360.116H282.07V371.744H270.442V360.116ZM282.07 360.116H293.698V371.744H282.07V360.116ZM293.698 360.116H305.326V371.744H293.698V360.116ZM305.326 360.116H316.953V371.744H305.326V360.116ZM305.326 348.488H316.953V360.116H305.326V348.488ZM305.326 336.86H316.953V348.488H305.326V336.86ZM305.326 325.233H316.953V336.86H305.326V325.233ZM305.326 313.605H316.953V325.233H305.326V313.605ZM305.326 301.977H316.953V313.605H305.326V301.977ZM305.326 290.349H316.953V301.977H305.326V290.349ZM305.326 278.721H316.953V290.349H305.326V278.721ZM293.698 267.093H305.326V278.721H293.698V267.093ZM293.698 255.465H305.326V267.093H293.698V255.465ZM293.698 243.837H305.326V255.465H293.698V243.837ZM293.698 232.209H305.326V243.837H293.698V232.209ZM305.326 255.465H316.953V267.093H305.326V255.465ZM305.326 267.093H316.953V278.721H305.326V267.093ZM305.326 243.837H316.953V255.465H305.326V243.837ZM305.326 232.209H316.953V243.837H305.326V232.209ZM305.326 220.581H316.953V232.209H305.326V220.581ZM305.326 208.953H316.953V220.581H305.326V208.953ZM305.326 197.326H316.953V208.953H305.326V197.326ZM305.326 185.698H316.953V197.326H305.326V185.698ZM305.326 174.07H316.953V185.698H305.326V174.07ZM293.698 208.953H305.326V220.581H293.698V208.953ZM293.698 220.581H305.326V232.209H293.698V220.581ZM293.698 197.326H305.326V208.953H293.698V197.326ZM293.698 174.07H305.326V185.698H293.698V174.07ZM282.07 174.07H293.698V185.698H282.07V174.07ZM282.07 185.698H293.698V197.326H282.07V185.698ZM282.07 197.326H293.698V208.953H282.07V197.326ZM282.07 208.953H293.698V220.581H282.07V208.953ZM282.07 220.581H293.698V232.209H282.07V220.581ZM293.698 185.698H305.326V197.326H293.698V185.698ZM282.07 232.209H293.698V243.837H282.07V232.209ZM282.07 243.837H293.698V255.465H282.07V243.837ZM282.07 255.465H293.698V267.093H282.07V255.465ZM282.07 267.093H293.698V278.721H282.07V267.093ZM282.07 278.721H293.698V290.349H282.07V278.721ZM282.07 290.349H293.698V301.977H282.07V290.349ZM282.07 301.977H293.698V313.605H282.07V301.977ZM282.07 313.605H293.698V325.233H282.07V313.605ZM282.07 325.233H293.698V336.86H282.07V325.233ZM282.07 336.86H293.698V348.488H282.07V336.86ZM282.07 348.488H293.698V360.116H282.07V348.488ZM293.698 348.488H305.326V360.116H293.698V348.488ZM293.698 336.86H305.326V348.488H293.698V336.86ZM293.698 325.233H305.326V336.86H293.698V325.233ZM293.698 301.977H305.326V313.605H293.698V301.977ZM293.698 290.349H305.326V301.977H293.698V290.349ZM293.698 278.721H305.326V290.349H293.698V278.721ZM293.698 313.605H305.326V325.233H293.698V313.605ZM305.326 371.744H316.953V383.372H305.326V371.744ZM293.698 371.744H305.326V383.372H293.698V371.744ZM293.698 383.372H305.326V395H293.698V383.372ZM305.326 383.372H316.953V395H305.326V383.372ZM316.953 348.488H328.581V360.116H316.953V348.488ZM328.581 348.488H340.209V360.116H328.581V348.488ZM328.581 360.116H340.209V371.744H328.581V360.116ZM316.953 360.116H328.581V371.744H316.953V360.116ZM119.279 290.349H130.907V301.977H119.279V290.349ZM107.651 290.349H119.279V301.977H107.651V290.349ZM96.0233 313.605H107.651V325.233H96.0233V313.605ZM84.3954 313.605H96.0233V325.233H84.3954V313.605ZM72.7674 336.86H84.3954V348.488H72.7674V336.86ZM61.1395 336.86H72.7674V348.488H61.1395V336.86ZM72.7674 325.233H84.3954V336.86H72.7674V325.233ZM49.5116 348.488H61.1395V360.116H49.5116V348.488ZM37.8837 348.488H49.5116V360.116H37.8837V348.488ZM37.8837 360.116H49.5116V371.744H37.8837V360.116ZM49.5116 360.116H61.1395V371.744H49.5116V360.116ZM26.2558 348.488H37.8837V360.116H26.2558V348.488ZM14.6279 348.488H26.2558V360.116H14.6279V348.488ZM26.2558 360.116H37.8837V371.744H26.2558V360.116ZM72.7674 371.744H84.3954V383.372H72.7674V371.744ZM61.1395 371.744H72.7674V383.372H61.1395V371.744ZM61.1395 383.372H72.7674V395H61.1395V383.372ZM72.7674 383.372H84.3954V395H72.7674V383.372ZM84.3954 371.744H96.0233V383.372H84.3954V371.744ZM96.0233 371.744H107.651V383.372H96.0233V371.744ZM96.0233 383.372H107.651V395H96.0233V383.372ZM84.3954 383.372H96.0233V395H84.3954V383.372ZM61.1395 348.488H72.7674V360.116H61.1395V348.488ZM119.279 360.116H130.907V371.744H119.279V360.116ZM107.651 360.116H119.279V371.744H107.651V360.116ZM119.279 348.488H130.907V360.116H119.279V348.488ZM72.7674 360.116H84.3954V371.744H72.7674V360.116ZM61.1395 360.116H72.7674V371.744H61.1395V360.116ZM130.907 336.86H142.535V348.488H130.907V336.86ZM142.535 325.233H154.163V336.86H142.535V325.233ZM142.535 336.86H154.163V348.488H142.535V336.86ZM130.907 348.488H142.535V360.116H130.907V348.488ZM107.651 371.744H119.279V383.372H107.651V371.744ZM223.93 371.744H235.558V383.372H223.93V371.744ZM316.953 371.744H328.581V383.372H316.953V371.744ZM293.698 115.93H305.326V127.558H293.698V115.93ZM235.558 115.93H247.186V127.558H235.558V115.93ZM142.535 115.93H154.163V127.558H142.535V115.93ZM200.674 115.93H212.302V127.558H200.674V115.93ZM72.7674 115.93H84.3954V127.558H72.7674V115.93ZM96.0233 115.93H107.651V127.558H96.0233V115.93ZM119.279 115.93H130.907V127.558H119.279V115.93ZM84.3954 325.233H96.0233V336.86H84.3954V325.233ZM107.651 301.977H119.279V313.605H107.651V301.977ZM49.5116 371.744H61.1395V383.372H49.5116V371.744ZM37.8837 371.744H49.5116V383.372H37.8837V371.744ZM49.5116 383.372H61.1395V395H49.5116V383.372ZM84.3954 104.302H96.0233V115.93H84.3954V104.302ZM72.7674 104.302H84.3954V115.93H72.7674V104.302ZM61.1395 115.93H72.7674V127.558H61.1395V115.93ZM14.6279 360.116H26.2558V371.744H14.6279V360.116ZM165.791 371.744H177.419V383.372H165.791V371.744ZM282.07 371.744H293.698V383.372H282.07V371.744Z" fill="black"/>
<rect y="151" width="85" height="174" fill="white"/>
</svg>
